# xmcd
#
# Track frame offsets:
#	150
#	18220
#	34522
#	51640
#	69740
#	85727
#	103750
#	121252
#	138330
#	156375
#	172365
#	187015
#
# Disc length: 2793 seconds
# Revision: 12
# Processed by: cddbd v1.5.2PL0 Copyright (c) Steve Scherf et al.
# Submitted via: dBpowerAMP V12.0
#
DISCID=ab0ae70c
DTITLE=Terri Clark - How I Feel
DYEAR=1998
DGENRE=Country
TTITLE0=I'm Alright
TTITLE1=Now That I Found You
TTITLE2=Everytime I Cry
TTITLE3=That's How I Feel
TTITLE4=You're Easy On The Eyes
TTITLE5=Getting Even With The Blues
TTITLE6=Till I Get There
TTITLE7=Not Getting Over You
TTITLE8=This Ole Heart
TTITLE9=Cure For The Common Heartache
TTITLE10=That's Me Not Loving You
TTITLE11=Unsung Hero
EXTD=
EXTT0=
EXTT1=
EXTT2=
EXTT3=
EXTT4=
EXTT5=
EXTT6=
EXTT7=
EXTT8=
EXTT9=
EXTT10=
EXTT11=
PLAYORDER=
